<svg id="blimp-drones" class="d-none d-sm-block" width="100%" height="100%" xmlns="http://www.w3.org/2000/svg" viewBox="0 0 1923 759" preserveAspectRatio="xMidYMax meet">
<g id="drone1Bubble" transform="matrix(0.099,0,0,0.1,366.8872,430.785)" style="transform-origin: 0px 0px; opacity: 0;">
<g>
<path fill="#E1FFF8" d="M393.8,492.1h20.7l6,5.3l0.1-5.3c11.2,0,20.2-7.8,20.2-17.3v0c0-9.6-9-17.3-20.2-17.3h-26.8
										c-11.2,0-20.2,7.8-20.2,17.3v0C373.6,484.4,382.6,492.1,393.8,492.1z"></path>
<g opacity="0.25">
<path d="M420.6,457.5c11.2,0,20.2,7.8,20.2,17.3v0c0,9.6-9,17.3-20.2,17.3l-0.1,5.3l-6-5.3h-20.7c-11.2,0-20.2-7.8-20.2-17.3v0
											c0-9.6,9-17.3,20.2-17.3H420.6 M420.6,455.5h-26.8c-12.2,0-22.2,8.7-22.2,19.3c0,10.7,10,19.3,22.2,19.3h20l5.4,4.8l3.2,2.9
											l0.1-4.3l0.1-3.4c11.3-0.9,20.2-9.2,20.2-19.3C442.8,464.2,432.8,455.5,420.6,455.5L420.6,455.5z"></path>
</g>
</g>
<g>
<path fill="#D8B173" d="M419.1,482.1h-25c-1,0-1.8-0.4-1.8-0.9v-12.1c0-0.5,0.8-0.9,1.8-0.9h25c1,0,1.8,0.4,1.8,0.9v12.1
										C420.9,481.7,420.1,482.1,419.1,482.1z"></path>
</g>
<rect x="394.5" y="472.7" fill="none" width="23.6" height="5.5"></rect>
<text transform="matrix(1 0 0 1 394.4626 477.6709)" fill="#E00000" font-family="'Arial-Black'" font-size="7px">PIZZA</text>
</g>
<g id="drone2Bubble" transform="matrix(0.099,0,0,0.1,716.2951,455.175)" style="transform-origin: 0px 0px; opacity: 0;">
<g>
<path fill="#E1FFF8" d="M781.6,519.2h20.7l-0.1,5.3l6.1-5.3c11.2,0,20.2-7.8,20.2-17.3v0c0-9.6-9-17.3-20.2-17.3h-26.8
										c-11.2,0-20.2,7.8-20.2,17.3v0C761.4,511.5,770.4,519.2,781.6,519.2z"></path>
<g opacity="0.25">
<path d="M808.4,484.6c11.2,0,20.2,7.8,20.2,17.3v0c0,9.6-9,17.3-20.2,17.3l-6.1,5.3l0.1-5.3h-20.7c-11.2,0-20.2-7.8-20.2-17.3v0
											c0-9.6,9-17.3,20.2-17.3H808.4 M808.4,482.6h-26.8c-12.2,0-22.2,8.7-22.2,19.3c0,10.7,10,19.3,22.2,19.3h18.7l0,3.3l-0.1,4.4
											l3.4-2.9l5.6-4.8c11.9-0.3,21.4-8.9,21.4-19.3C830.6,491.2,820.6,482.6,808.4,482.6L808.4,482.6z"></path>
</g>
</g>
<g>
<g>
<path fill="#D8B173" d="M802.5,509.8h-14.9c-0.6,0-1.1-0.5-1.1-1.1v-14.9c0-0.6,0.5-1.1,1.1-1.1h14.9c0.6,0,1.1,0.5,1.1,1.1v14.9
											C803.5,509.3,803.1,509.8,802.5,509.8z"></path>
<rect x="790.1" y="492.8" fill="#FFEFD6" width="2.7" height="6"></rect>
</g>
</g>
</g>
<g id="drone1" class="drone" transform="matrix(0.914,0,0,0.914,1194.2747,357.4697)" style="transform-origin: 0px 0px;">
<g class="package" style="opacity: 0;">
<path fill="#2C1468" d="M25.3,14.1h-2.5V13h1.4c-0.1-2.3-1.1-3.8-2.9-4.6h-4.5c-1.8,1.1-2.8,2.6-2.9,4.6h1.4v1.1h-2.5v-0.5
										c0-2.7,1.2-4.8,3.6-6.1l0.1-0.1l5.1,0.1c2.5,1,3.7,3.1,3.7,6.2L25.3,14.1L25.3,14.1z"></path>
<g class="box">
<path fill="#D8B173" d="M22.5,15.5h-6.8c-0.3,0-0.5-0.1-0.5-0.2V12c0-0.1,0.2-0.2,0.5-0.2h6.8c0.3,0,0.5,0.1,0.5,0.2v3.3
											C22.9,15.4,22.7,15.5,22.5,15.5z"></path>
<rect x="16" y="13.1" fill="#E00000" width="3.9" height="0.9"></rect>
</g>
</g>
<g class="wing left" transform="matrix(0.586,0,0,1,2.9684,0)" style="transform-origin: 0px 0px;">
<path fill="#0f0744" d="M8.88,1.52c-0.41,0-0.68-0.27-0.68-0.68s0.27-0.68,0.68-0.68s5.46,0.27,5.46,0.68S9.29,1.52,8.88,1.52z"></path>
<path fill="#0f0744" d="M5.46,1.52C5.05,1.52,0,1.24,0,0.83s5.05-0.68,5.46-0.68c0.41,0,0.68,0.27,0.68,0.68S5.87,1.52,5.46,1.52z"></path>
</g>
<g class="wing right" transform="matrix(0.586,0,0,1,12.865,0)" style="transform-origin: 0px 0px;">
<path fill="#0f0744" d="M32.78,1.52c-0.41,0-0.68-0.27-0.68-0.68s0.27-0.68,0.68-0.68s5.46,0.27,5.46,0.68S33.19,1.52,32.78,1.52z"></path>
<path fill="#0f0744" d="M29.37,1.52c-0.41,0-5.46-0.27-5.46-0.68s5.05-0.68,5.46-0.68s0.68,0.27,0.68,0.68S29.78,1.52,29.37,1.52z"></path>
</g>
<g class="body">
<path fill="#2C1468" d="M33.5,5.1c0,0.5-0.5,1-1,1h-7.2v0.6c0,0.5-0.3,1-0.7,1.2l-1,0.6c0.6,0.6,1,1.2,1.3,2h-1.2
										c-0.3-0.6-0.6-1.1-1.1-1.5l-0.4,0.3c-0.2,0.1-0.5,0.2-0.7,0.2h-4.7c-0.3,0-0.5-0.1-0.7-0.2l-0.3-0.2c-0.5,0.4-0.8,0.9-1.1,1.4
										h-1.2c0.3-0.7,0.8-1.4,1.4-1.9l-1.2-0.7C13.3,7.7,13,7.2,13,6.8V6.2H5.8c-0.6,0-1-0.5-1-1c0-0.5,0.5-1,1-1h0.3V3.4
										c0-0.4,0.3-0.7,0.7-0.7V0.4C6.9,0.1,7,0,7.2,0c0.2,0,0.3,0.1,0.3,0.4v2.4c0.4,0,0.7,0.3,0.7,0.7v0.7H13c0.1-0.4,0.3-0.8,0.7-1.1
										l2.5-1.4c0.2-0.1,0.5-0.2,0.7-0.2h4.7c0.3,0,0.5,0.1,0.7,0.2L24.6,3c0.4,0.3,0.7,0.6,0.7,1.1h4.8V3.4c0-0.4,0.3-0.7,0.7-0.7V0.4
										c0-0.2,0.1-0.4,0.3-0.4c0.2,0,0.3,0.1,0.3,0.4v2.4c0.4,0,0.7,0.3,0.7,0.7v0.7h0.3C33,4.1,33.5,4.6,33.5,5.1z"></path>
</g>
</g>
<g id="drone2" class="drone" transform="matrix(1,0,0,1,1432.43,302.56)" style="transform-origin: 0px 0px;">
<g class="package" style="opacity: 0;">
<path fill="#0f0744" d="M25.34,14.22h-2.46v-1.09h1.37c-0.14-2.32-1.09-3.82-2.87-4.64h-4.51c-1.84,1.09-2.8,2.6-2.94,4.64h1.37
										v1.09h-2.46v-0.55c0-2.73,1.23-4.78,3.62-6.15l0.14-0.07l5.12,0.07c2.46,1.02,3.69,3.14,3.69,6.22v0.48H25.34z"></path>
<g class="box">
<path fill="#D8B173" d="M22.47,19.34h-6.76c-0.27,0-0.48-0.2-0.48-0.48V12.1c0-0.27,0.2-0.48,0.48-0.48h6.76
											c0.27,0,0.48,0.2,0.48,0.48v6.76C22.95,19.14,22.74,19.34,22.47,19.34z"></path>
<rect x="16.87" y="11.62" fill="#FFEFD6" width="1.23" height="2.73"></rect>
</g>
</g>
<g class="wing left" transform="matrix(0.586,0,0,1,2.9684,0)" style="transform-origin: 0px 0px;">
<path fill="#0f0744" d="M8.88,1.52c-0.41,0-0.68-0.27-0.68-0.68s0.27-0.68,0.68-0.68s5.46,0.27,5.46,0.68S9.29,1.52,8.88,1.52z"></path>
<path fill="#0f0744" d="M5.46,1.52C5.05,1.52,0,1.24,0,0.83s5.05-0.68,5.46-0.68c0.41,0,0.68,0.27,0.68,0.68S5.87,1.52,5.46,1.52z"></path>
</g>
<g class="wing right" transform="matrix(0.586,0,0,1,12.865,0)" style="transform-origin: 0px 0px;">
<path fill="#0f0744" d="M32.78,1.52c-0.41,0-0.68-0.27-0.68-0.68s0.27-0.68,0.68-0.68s5.46,0.27,5.46,0.68S33.19,1.52,32.78,1.52z"></path>
<path fill="#0f0744" d="M29.37,1.52c-0.41,0-5.46-0.27-5.46-0.68s5.05-0.68,5.46-0.68s0.68,0.27,0.68,0.68S29.78,1.52,29.37,1.52z"></path>
</g>
<g class="body">
<path fill="#2C1468" d="M33.5,5.1c0,0.5-0.5,1-1,1h-7.2v0.6c0,0.5-0.3,1-0.7,1.2l-1,0.6c0.6,0.6,1,1.2,1.3,2h-1.2
										c-0.3-0.6-0.6-1.1-1.1-1.5l-0.4,0.3c-0.2,0.1-0.5,0.2-0.7,0.2h-4.7c-0.3,0-0.5-0.1-0.7-0.2l-0.3-0.2c-0.5,0.4-0.8,0.9-1.1,1.4
										h-1.2c0.3-0.7,0.8-1.4,1.4-1.9l-1.2-0.7C13.3,7.7,13,7.2,13,6.8V6.2H5.8c-0.6,0-1-0.5-1-1c0-0.5,0.5-1,1-1h0.3V3.4
										c0-0.4,0.3-0.7,0.7-0.7V0.4C6.9,0.1,7,0,7.2,0c0.2,0,0.3,0.1,0.3,0.4v2.4c0.4,0,0.7,0.3,0.7,0.7v0.7H13c0.1-0.4,0.3-0.8,0.7-1.1
										l2.5-1.4c0.2-0.1,0.5-0.2,0.7-0.2h4.7c0.3,0,0.5,0.1,0.7,0.2L24.6,3c0.4,0.3,0.7,0.6,0.7,1.1h4.8V3.4c0-0.4,0.3-0.7,0.7-0.7V0.4
										c0-0.2,0.1-0.4,0.3-0.4c0.2,0,0.3,0.1,0.3,0.4v2.4c0.4,0,0.7,0.3,0.7,0.7v0.7h0.3C33,4.1,33.5,4.6,33.5,5.1z"></path>
</g>
</g>
<g id="blimp" transform="matrix(1,0,0,1,0,0.056)" style="transform-origin: 0px 0px;">
<path id="XMLID_70_" fill-rule="evenodd" clip-rule="evenodd" fill="#A52B67" d="M1479.87,335.28h-69.43
									c2.03,3.44,4.59,16.26,13.32,16.26h51.21c1.5,0,2.42-1.52,2.72-3.3L1479.87,335.28z"></path>
<g id="XMLID_57_">
<path id="XMLID_68_" fill-rule="evenodd" clip-rule="evenodd" fill="#941350" d="M1566.93,293.67h-45.47V272.5l41.81-11.15
										c1.95-0.52,3.66,1.68,3.66,3.74V293.67z"></path>
<path id="XMLID_61_" fill-rule="evenodd" clip-rule="evenodd" fill="#AF3B76" d="M1544.36,336.5l18.91,5.04
										c1.95,0.52,3.66-1.68,3.66-3.74v-12.86C1560,329.97,1552.35,333.62,1544.36,336.5z"></path>
<path id="XMLID_60_" fill-rule="evenodd" clip-rule="evenodd" fill="#A52B67" d="M1566.93,309.22h-45.47v21.17l22.9,6.11
										c7.98-2.88,15.64-6.53,22.57-11.56V309.22z"></path>
<path id="XMLID_65_" fill-rule="evenodd" clip-rule="evenodd" fill="#CF69A0" d="M1583.15,301.53L1583.15,301.53
										c-12.85,20.98-73.49,37.33-149.99,37.47c-52.55,0.1-93.45-9.87-100.7-37.46c7.26,16.29,48.15,20.02,100.7,19.97
										C1509.66,321.42,1570.31,313.92,1583.15,301.53z"></path>
<path id="XMLID_73_" fill-rule="evenodd" clip-rule="evenodd" fill="#991C57" d="M1583.15,301.51L1583.15,301.51
										c-12.85-12.38-73.49-18.65-149.99-18.73c-52.54-0.06-93.44,2.44-100.7,18.73c7.25-27.59,48.15-37.55,100.7-37.46
										C1509.66,264.19,1570.31,280.54,1583.15,301.51z"></path>
<path id="XMLID_67_" fill-rule="evenodd" clip-rule="evenodd" fill="#C55892" d="M1583.16,301.53L1583.16,301.53
										c-12.85,12.39-73.5,22.04-150,22.12c-52.54,0.06-93.44-5.83-100.7-22.11v0l0,0h0c7.25,5.78,46.45,6.17,98.99,6.15
										C1507.96,307.64,1570.31,305.92,1583.16,301.53L1583.16,301.53z"></path>
<path id="XMLID_63_" fill-rule="evenodd" clip-rule="evenodd" fill="#A52B67" d="M1583.15,301.52L1583.15,301.52
										c-12.85-4.39-73.12-5.2-149.62-5.23c-52.55-0.02-93.82-0.54-101.07,5.24v-0.01c7.26-16.29,48.15-22.17,100.7-22.11
										C1509.66,279.48,1570.31,289.13,1583.15,301.52z"></path>
<path id="XMLID_64_" fill-rule="evenodd" clip-rule="evenodd" fill="#AF3B76" d="M1583.15,301.52L1583.15,301.52
										c-12.85,4.4-73.49,7.82-149.99,7.85c-52.55,0.02-93.45-2.06-100.7-7.85v0c7.25-5.78,48.15-7.87,100.7-7.85
										C1509.66,293.7,1570.31,297.13,1583.15,301.52z"></path>
</g>
<g id="XMLID_50_">
<path id="XMLID_55_" fill-rule="evenodd" clip-rule="evenodd" fill="#CF69A0" d="M1431.14,343.99h3.04c0.31,0,0.57,0.19,0.57,0.43
										v2.28c0,0.24-0.26,0.43-0.57,0.43h-3.04c-0.31,0-0.57-0.19-0.57-0.43v-2.28C1430.57,344.18,1430.83,343.99,1431.14,343.99z"></path>
<path id="XMLID_54_" fill-rule="evenodd" clip-rule="evenodd" fill="#CF69A0" d="M1438.06,343.99h3.04c0.31,0,0.57,0.19,0.57,0.43
										v2.28c0,0.24-0.26,0.43-0.57,0.43h-3.04c-0.31,0-0.57-0.19-0.57-0.43v-2.28C1437.49,344.18,1437.75,343.99,1438.06,343.99z"></path>
<path id="XMLID_53_" fill-rule="evenodd" clip-rule="evenodd" fill="#CF69A0" d="M1444.98,343.99h3.04c0.31,0,0.57,0.19,0.57,0.43
										v2.28c0,0.24-0.26,0.43-0.57,0.43h-3.04c-0.31,0-0.57-0.19-0.57-0.43v-2.28C1444.41,344.18,1444.67,343.99,1444.98,343.99z"></path>
<path id="XMLID_52_" fill-rule="evenodd" clip-rule="evenodd" fill="#CF69A0" d="M1451.9,343.99h3.04c0.31,0,0.57,0.19,0.57,0.43
										v2.28c0,0.24-0.26,0.43-0.57,0.43h-3.04c-0.31,0-0.57-0.19-0.57-0.43v-2.28C1451.33,344.18,1451.58,343.99,1451.9,343.99z"></path>
<path id="XMLID_51_" fill-rule="evenodd" clip-rule="evenodd" fill="#CF69A0" d="M1458.82,343.99h3.04c0.31,0,0.57,0.19,0.57,0.43
										v2.28c0,0.24-0.26,0.43-0.57,0.43h-3.04c-0.31,0-0.57-0.19-0.57-0.43v-2.28C1458.24,344.18,1458.5,343.99,1458.82,343.99z"></path>
</g>
</g>
</svg>
